<?xml version="1.0" encoding="UTF-8" standalone="no"?>
<svg
   version="1.0"
   width="200.000000pt"
   height="200.000000pt"
   viewBox="0 0 200.000000 200.000000"
   preserveAspectRatio="xMidYMid meet"
   id="svg10"
   sodipodi:docname="color-dropper.svg"
   inkscape:version="1.2.2 (732a01da63, 2022-12-09)"
   xmlns:inkscape="http://www.inkscape.org/namespaces/inkscape"
   xmlns:sodipodi="http://sodipodi.sourceforge.net/DTD/sodipodi-0.dtd"
   xmlns="http://www.w3.org/2000/svg"
   xmlns:svg="http://www.w3.org/2000/svg">
  <defs
     id="defs14" />
  <sodipodi:namedview
     id="namedview12"
     pagecolor="#ffffff"
     bordercolor="#000000"
     borderopacity="0.25"
     inkscape:showpageshadow="2"
     inkscape:pageopacity="0.0"
     inkscape:pagecheckerboard="0"
     inkscape:deskcolor="#d1d1d1"
     inkscape:document-units="pt"
     showgrid="false"
     inkscape:zoom="3.85125"
     inkscape:cx="108.14671"
     inkscape:cy="133.20351"
     inkscape:window-width="2560"
     inkscape:window-height="1377"
     inkscape:window-x="-8"
     inkscape:window-y="-8"
     inkscape:window-maximized="1"
     inkscape:current-layer="svg10" />
  <g
     transform="translate(0.000000,200.000000) scale(0.100000,-0.100000)"
     fill="#000000"
     stroke="none"
     id="g8"
     style="fill:#7a836e;fill-opacity:1">
    <path
       d="M1630 1951 c-59 -19 -98 -49 -209 -156 l-116 -114 185 -185 185 -186 118 118 c65 64 128 135 140 157 29 53 30 173 3 225 -26 49 -74 98 -121 122 -43 22 -144 33 -185 19z"
       id="path2"
       style="fill:#7a836e;fill-opacity:1" />
    <path
       d="M1067 1571 c-116 -118 -123 -100 141 -363 263 -264 245 -257 363 -141 73 71 79 80 79 117 0 39 -6 46 -213 253 -207 207 -214 213 -253 213 -37 0 -46 -6 -117 -79z"
       id="path4"
       style="fill:#7a836e;fill-opacity:1" />
    <path
       d="M628 923 c-371 -373 -406 -414 -423 -493 -11 -50 -29 -83 -80 -140 -25 -28 -45 -59 -45 -68 0 -22 120 -142 142 -142 10 0 40 20 68 45 57 51 90 69 140 80 80 16 128 58 498 428 l372 372 -148 148 -147 147 -377 -377z"
       id="path6"
       style="fill:#7a836e;fill-opacity:1" />
  </g>
</svg>
