<?xml version="1.0" encoding="UTF-8" standalone="no"?>
<!-- Uploaded to: SVG Repo, www.svgrepo.com, Generator: SVG Repo Mixer Tools -->

<svg
   fill="#000000"
   height="800px"
   width="800px"
   version="1.1"
   id="Layer_1"
   viewBox="0 0 330.002 330.002"
   xml:space="preserve"
   sodipodi:docname="down_arrow.svg"
   inkscape:version="1.2.2 (732a01da63, 2022-12-09)"
   xmlns:inkscape="http://www.inkscape.org/namespaces/inkscape"
   xmlns:sodipodi="http://sodipodi.sourceforge.net/DTD/sodipodi-0.dtd"
   xmlns="http://www.w3.org/2000/svg"
   xmlns:svg="http://www.w3.org/2000/svg"><defs
   id="defs8" /><sodipodi:namedview
   id="namedview6"
   pagecolor="#ffffff"
   bordercolor="#000000"
   borderopacity="0.25"
   inkscape:showpageshadow="2"
   inkscape:pageopacity="0.0"
   inkscape:pagecheckerboard="0"
   inkscape:deskcolor="#d1d1d1"
   showgrid="false"
   inkscape:zoom="1.28375"
   inkscape:cx="324.44012"
   inkscape:cy="399.61052"
   inkscape:window-width="2560"
   inkscape:window-height="1377"
   inkscape:window-x="-8"
   inkscape:window-y="-8"
   inkscape:window-maximized="1"
   inkscape:current-layer="Layer_1" />
<g
   id="XMLID_7_"
   style="fill:#7a836e;fill-opacity:1"
   transform="matrix(0.98442069,0,0,0.98636796,2.8919276,2.57063)">
	<path
   id="XMLID_8_"
   d="m 315.001,180.001 h -300 c -6.371,0 -12.046,4.024 -14.154,10.035 -2.109,6.011 -0.19,12.699 4.784,16.678 l 150.004,120 c 2.739,2.191 6.055,3.287 9.37,3.287 3.316,0 6.631,-1.096 9.371,-3.287 l 149.996,-120 c 4.974,-3.98 6.893,-10.667 4.784,-16.678 -2.109,-6.012 -7.785,-10.035 -14.155,-10.035 z M 165.005,295.791 57.764,210.001 H 272.24 Z"
   style="fill:#7a836e;fill-opacity:1" />
	<path
   id="XMLID_11_"
   d="m 15.001,150.001 h 300 c 6.371,0 12.046,-4.024 14.154,-10.035 2.109,-6.011 0.19,-12.699 -4.784,-16.678 l -150.004,-120 c -5.479,-4.382 -13.262,-4.382 -18.741,0 l -149.996,120 c -4.974,3.979 -6.893,10.667 -4.784,16.678 2.109,6.011 7.785,10.035 14.155,10.035 z M 164.997,34.21 272.238,120 H 57.762 Z"
   style="fill:#7a836e;fill-opacity:1" />
</g>
</svg>
