<?xml version="1.0" encoding="UTF-8" standalone="no"?>
<!-- Created with Inkscape (http://www.inkscape.org/) -->

<svg
   width="250mm"
   height="250mm"
   viewBox="0 0 250 250"
   version="1.1"
   id="svg5"
   xml:space="preserve"
   inkscape:version="1.2.2 (732a01da63, 2022-12-09)"
   sodipodi:docname="icon-bg-4.svg"
   inkscape:export-filename="icon-bg-4.png"
   inkscape:export-xdpi="56.996532"
   inkscape:export-ydpi="56.996532"
   xmlns:inkscape="http://www.inkscape.org/namespaces/inkscape"
   xmlns:sodipodi="http://sodipodi.sourceforge.net/DTD/sodipodi-0.dtd"
   xmlns="http://www.w3.org/2000/svg"
   xmlns:svg="http://www.w3.org/2000/svg"><sodipodi:namedview
     id="namedview7"
     pagecolor="#ffffff"
     bordercolor="#000000"
     borderopacity="0.25"
     inkscape:showpageshadow="false"
     inkscape:pageopacity="0.0"
     inkscape:pagecheckerboard="false"
     inkscape:deskcolor="#d1d1d1"
     inkscape:document-units="mm"
     showgrid="false"
     showborder="true"
     inkscape:zoom="0.75757893"
     inkscape:cx="214.4991"
     inkscape:cy="485.75797"
     inkscape:window-width="2560"
     inkscape:window-height="1377"
     inkscape:window-x="-8"
     inkscape:window-y="-8"
     inkscape:window-maximized="1"
     inkscape:current-layer="g1146"><sodipodi:guide
       position="0,250"
       orientation="0,944.88189"
       id="guide291"
       inkscape:locked="false" /><sodipodi:guide
       position="250,250"
       orientation="944.88189,0"
       id="guide293"
       inkscape:locked="false" /><sodipodi:guide
       position="256.42983,-0.29514497"
       orientation="0,-944.88189"
       id="guide295"
       inkscape:locked="false" /><sodipodi:guide
       position="0.2044895,8.9068822"
       orientation="-944.88189,0"
       id="guide297"
       inkscape:locked="false" /></sodipodi:namedview><defs
     id="defs2" /><g
     inkscape:label="Layer 1"
     inkscape:groupmode="layer"
     id="layer1"><rect
       style="fill:#333333;fill-opacity:1;stroke-width:0.282969"
       id="rect959"
       width="247.26797"
       height="247.26797"
       x="1.3969952"
       y="1.0689182"
       ry="13.316615" /><g
       id="g1146"
       transform="matrix(1.3129242,0,0,1.3129242,-35.930241,-37.188411)"><g
         id="g865"
         transform="translate(7.9802418,7.804306)"><rect
           style="fill:#f9f9f9;stroke-width:0.156083"
           id="rect113"
           width="34.593349"
           height="33.474926"
           x="33.748951"
           y="161.27663"
           ry="5.4621077" /><rect
           style="fill:#f9f9f9;stroke-width:0.208571"
           id="rect113-1"
           width="34.593349"
           height="59.774731"
           x="76.177925"
           y="134.97681"
           ry="5.4621077" /><rect
           style="fill:#f9f9f9;stroke-width:0.249978"
           id="rect113-1-8"
           width="34.593349"
           height="85.864128"
           x="118.61775"
           y="108.88741"
           ry="5.4621077" /><rect
           style="fill:#f9f9f9;stroke-width:0.292721"
           id="rect113-1-8-8"
           width="34.593349"
           height="117.73645"
           x="161.06047"
           y="77.015106"
           ry="5.4621077" /><g
           style="fill:#f9f9f9"
           id="g1282"
           transform="matrix(0.51423979,0,0,0.61980108,27.658977,12.383848)"><path
             d="m 244.00244,50.94767 v 55.1133 c 0,6.86685 -5.7405,12.43353 -12.02552,12.43353 -6.28502,0 -12.02552,-5.56668 -12.02552,-12.43353 V 80.959697 l -75.67524,78.242813 c -4.69621,4.85585 -12.31058,4.85585 -17.00679,0 L 95.687701,126.54931 32.03798,192.35859 c -4.69735,4.84929 -12.306523,4.84627 -17.000277,-0.007 -4.693753,-4.85301 -4.696674,-12.72035 -0.0065,-17.57708 L 87.184306,100.1736 c 4.696212,-4.855848 12.310582,-4.855848 17.006794,0 l 31.58167,32.65319 67.17184,-69.450904 h -35.10379 c -6.64018,-0.0019 -12.0221,-5.568059 -12.0221,-12.433532 0,-6.865472 5.38192,-12.431584 12.0221,-12.433531 h 64.13121 c 0.39831,-2.49e-4 0.7971,0.0215 1.19393,0.06223 0.16736,0.01695 0.32981,0.04958 0.49471,0.07357 0.22362,0.03264 0.44724,0.05995 0.6689,0.105488 0.19279,0.03947 0.37874,0.09461 0.5681,0.143431 0.19132,0.04933 0.38411,0.09334 0.57398,0.152529 0.18544,0.05819 0.36454,0.130552 0.54608,0.197568 0.18887,0.06957 0.37873,0.134065 0.56466,0.213754 0.16882,0.07234 0.33079,0.157595 0.4952,0.23778 0.19132,0.09259 0.38412,0.180618 0.57153,0.284324 0.1556,0.08652 0.30337,0.184918 0.45506,0.278263 0.18546,0.113829 0.37286,0.222601 0.55343,0.347569 0.1649,0.114336 0.31952,0.241832 0.47901,0.364261 0.15512,0.119393 0.31415,0.231201 0.46486,0.359453 0.28528,0.242091 0.55782,0.498585 0.81961,0.766227 0.019,0.01947 0.0401,0.03542 0.0592,0.05514 0.0191,0.01973 0.0348,0.04145 0.0538,0.06121 0.25885,0.271465 0.50743,0.553479 0.74132,0.848433 0.12038,0.151275 0.22509,0.310631 0.33763,0.466454 0.12185,0.168982 0.24858,0.334162 0.3621,0.509723 0.1189,0.183395 0.22215,0.373877 0.33078,0.562328 0.092,0.159874 0.1894,0.316205 0.27451,0.480628 0.0988,0.19073 0.18252,0.386776 0.27108,0.581558 0.0788,0.173271 0.16245,0.343777 0.23389,0.521348 0.0759,0.189725 0.13751,0.38374 0.20406,0.57675 0.066,0.189725 0.13652,0.376912 0.19328,0.570906 0.0572,0.195031 0.0993,0.393356 0.14679,0.590407 0.0475,0.196304 0.1008,0.389812 0.13945,0.58965 0.0436,0.228683 0.0704,0.459636 0.10178,0.690061 0.0234,0.17151 0.0553,0.339725 0.0714,0.513256 0.0396,0.410617 0.0597,0.822133 0.0602,1.234546 z"
             id="path1274"
             style="fill:#f9f9f9;stroke-width:1.01898"
             sodipodi:nodetypes="csascccccsccccccscccccsccsccccccssccccccscccccsccc" /></g><rect
           style="fill:#f9f9f9;stroke-width:0.221931"
           id="rect965"
           width="34.593349"
           height="34.593349"
           x="160.94408"
           y="36.278687"
           ry="5.0327783" /><rect
           style="fill:#333333;stroke-width:0.175209"
           id="rect965-4-4"
           width="27.310537"
           height="27.310537"
           x="164.58548"
           y="39.920094"
           ry="3.9732459" /><rect
           style="fill:#7fff2a;stroke-width:0.222175"
           id="rect965-4"
           width="34.593266"
           height="34.668846"
           x="160.96207"
           y="36.296673"
           ry="5.0437613" /></g></g></g></svg>
